/* XPM */
static char *TL_blue[] = {
/* columns rows colors chars-per-pixel */
"16 16 3 1 ",
"  c black",
". c #00007F7FFFFF",
"X c None",
/* pixels */
"XXXXXXXXXXXXXXXX",
"                ",
"                ",
"  .....XXXXXXX  ",
"  .....XXXXXXX  ",
"  .....XXXXXXX  ",
"  .....XXXXXXX  ",
"  .....XXXXXXX  ",
"  XXXXXXXXXXXX  ",
"  XXXXXXXXXXXX  ",
"  XXXXXXXXXXXX  ",
"  XXXXXXXXXXXX  ",
"  XXXXXXXXXXXX  ",
"                ",
"                ",
"XXXXXXXXXXXXXXXX"
};
