/* XPM */
static char * BR_blue_xpm[] = {
"16 16 3 1",
" 	c None",
".	c #000000",
"+	c #007FFF",
"                ",
"................",
"................",
"..            ..",
"..            ..",
"..            ..",
"..            ..",
"..            ..",
"..      ++++++..",
"..      ++++++..",
"..      ++++++..",
"..      ++++++..",
"..      ++++++..",
"................",
"................",
"                "};
