/* XPM */
static char *R_grn[] = {
/* columns rows colors chars-per-pixel */
"16 16 3 1 ",
"  c black",
". c green",
"X c None",
/* pixels */
"XXXXXXXXXXXXXXXX",
"                ",
"                ",
"  XXXXXX.....X  ",
"  XXXXXX.....X  ",
"  XXXXXX.....X  ",
"  XXXXXX.....X  ",
"  XXXXXX.....X  ",
"  XXXXXX.....X  ",
"  XXXXXX.....X  ",
"  XXXXXX.....X  ",
"  XXXXXX.....X  ",
"  XXXXXX.....X  ",
"                ",
"                ",
"XXXXXXXXXXXXXXXX"
};
