/* XPM */
static char * To_BR_xpm[] = {
"16 16 4 1",
" 	c None",
".	c #000000",
"+	c #808080",
"@	c #00FF00",
"                ",
"................",
"................",
"..++++++++++++..",
"..++++++++++++..",
"..++++++++++++..",
"..++++++++++++..",
"..+++++++++++@..",
"..+++++++++++@..",
"..++++++++++@@..",
"..++++++++++@@..",
"..++++++++@@@@..",
"..++++++@@@@@@..",
"................",
"................",
"                "};
