/* XPM */
static char * To_L_TL_xpm[] = {
"32 16 4 1",
" 	c None",
".	c #000000",
"+	c #00FF00",
"@	c #808080",
"                                ",
"................................",
"................................",
"..++++++++@@@@@..@@@@@@@@@@@@@..",
"..+++++++@@@@@@..@@@@@@@@@@@@@..",
"..+++++@@@@@@@@..@@@@@@@@@@@@@..",
"..+++@@@@@@@@@@..@@@@@@@@@@@@@..",
"..+++@@@@@@@@@@..@@@@@@@@@@@@@..",
"..++@@@@@@@@@@@..@@@@@@@@@@@@@..",
"..++@@@@@@@@@@@..@@@@@@@@@@@@@..",
"..+@@@@@@@@@@@@..@@@@@@@@@@@@@..",
"..@@@@@@@@@@@@@..@@@@@@@@@@@@@..",
"..@@@@@@@@@@@@@..@@@@@@@@@@@@@..",
"................................",
"................................",
"                                "};
