/* XPM */
static char * To_R_TL_xpm[] = {
"32 16 4 1",
" 	c None",
".	c #000000",
"+	c #808080",
"@	c #00FF00",
"                                ",
"................................",
"................................",
"..+++++++++++++..@@@@@@@@+++++..",
"..+++++++++++++..@@@@@@@++++++..",
"..+++++++++++++..@@@@@++++++++..",
"..+++++++++++++..@@@++++++++++..",
"..+++++++++++++..@@@++++++++++..",
"..+++++++++++++..@@+++++++++++..",
"..+++++++++++++..@@+++++++++++..",
"..+++++++++++++..@++++++++++++..",
"..+++++++++++++..+++++++++++++..",
"..+++++++++++++..+++++++++++++..",
"................................",
"................................",
"                                "};
