/* XPM */
static char * L_L_xpm[] = {
"32 16 4 1",
" 	c None",
".	c #000000",
"+	c #FFFFFF",
"@	c #808080",
"                                ",
"................................",
"................................",
"..++++++@@@@@@@..@@@@@@@@@@@@@..",
"..++++++@@@@@@@..@@@@@@@@@@@@@..",
"..++++++@@@@@@@..@@@@@@@@@@@@@..",
"..++++++@@@@@@@..@@@@@@@@@@@@@..",
"..++++++@@@@@@@..@@@@@@@@@@@@@..",
"..++++++@@@@@@@..@@@@@@@@@@@@@..",
"..++++++@@@@@@@..@@@@@@@@@@@@@..",
"..++++++@@@@@@@..@@@@@@@@@@@@@..",
"..++++++@@@@@@@..@@@@@@@@@@@@@..",
"..++++++@@@@@@@..@@@@@@@@@@@@@..",
"................................",
"................................",
"                                "};
