/* XPM */
static char *L[] = {
/* columns rows colors chars-per-pixel */
"16 16 3 1 ",
"  c black",
". c gray60",
"X c None",
/* pixels */
"XXXXXXXXXXXXXXXX",
"                ",
"                ",
"  .....XXXXXXX  ",
"  .....XXXXXXX  ",
"  .....XXXXXXX  ",
"  .....XXXXXXX  ",
"  .....XXXXXXX  ",
"  .....XXXXXXX  ",
"  .....XXXXXXX  ",
"  .....XXXXXXX  ",
"  .....XXXXXXX  ",
"  .....XXXXXXX  ",
"                ",
"                ",
"XXXXXXXXXXXXXXXX"
};
