/* XPM */
static char *M[] = {
/* columns rows colors chars-per-pixel */
"16 16 3 1 ",
"  c black",
". c white",
"X c None",
/* pixels */
"XXXXXXXXXXXXXXXX",
"                ",
"                ",
"  XXX......XXX  ",
"  XXX......XXX  ",
"  XXX......XXX  ",
"  XXX......XXX  ",
"  XXX......XXX  ",
"  XXX......XXX  ",
"  XXX......XXX  ",
"  XXX......XXX  ",
"  XXX......XXX  ",
"  XXX......XXX  ",
"                ",
"                ",
"XXXXXXXXXXXXXXXX"
};
