/* XPM */
static char * L_BR_xpm[] = {
"32 16 4 1",
" 	c None",
".	c #000000",
"+	c #808080",
"@	c #FFFFFF",
"                                ",
"................................",
"................................",
"..+++++++++++++..+++++++++++++..",
"..+++++++++++++..+++++++++++++..",
"..+++++++++++++..+++++++++++++..",
"..+++++++++++++..+++++++++++++..",
"..+++++++++++++..+++++++++++++..",
"..+++++++@@@@@@..+++++++++++++..",
"..+++++++@@@@@@..+++++++++++++..",
"..+++++++@@@@@@..+++++++++++++..",
"..+++++++@@@@@@..+++++++++++++..",
"..+++++++@@@@@@..+++++++++++++..",
"................................",
"................................",
"                                "};
