/* XPM */
static char * R_L_xpm[] = {
"32 16 4 1",
" 	c None",
".	c #000000",
"+	c #808080",
"@	c #FFFFFF",
"                                ",
"................................",
"................................",
"..+++++++++++++..@@@@@@+++++++..",
"..+++++++++++++..@@@@@@+++++++..",
"..+++++++++++++..@@@@@@+++++++..",
"..+++++++++++++..@@@@@@+++++++..",
"..+++++++++++++..@@@@@@+++++++..",
"..+++++++++++++..@@@@@@+++++++..",
"..+++++++++++++..@@@@@@+++++++..",
"..+++++++++++++..@@@@@@+++++++..",
"..+++++++++++++..@@@@@@+++++++..",
"..+++++++++++++..@@@@@@+++++++..",
"................................",
"................................",
"                                "};
